:SAMPLES-PER-SECOND 30
:FULLY-SPECIFIED
:DEGREES
1035
root  -4.86153 38.8267 -4.35745 109.564 87.7464 112.516
RightUpLeg  -18.3763 -8.07029 -5.52462
RightLeg  0.258324 -2.54942 1.1923
RightFoot  -5.00242 -0.56953 9.6647
RightToes  5.82063e-011 0 -3.6325e-017
Spine  7.77549 -1.36383 -2.4308
Spine1  11.075 -2.25718 2.31899
HEad  -16.5614 -1.82086 -1.14406
LeftShoulder1  0.387189 2.29468 -25.813
LeftArm  5.97294 -10.3443 -55.3578
LeftForeArm  46.2684 -77.315 -55.7869
LeftHand  -0.0569375 4.33257 4.06638
RightShoulder  -0.351002 -4.6104 24.6749
RightArm  -15.62 -3.8174 39.2041
RightForeArm  127.025 71.7219 144.355
RightHand  -1.11289 7.54726 -10.3119
LeftUpLeg  6.44538 5.13157 -3.84932
LeftLeg  16.7741 1.76202 0.964363
LeftFoot  -17.8873 0.387777 4.90041
LeftToes  -1.20963e-009 8.6283e-011 2.04439e-011
1036
root  -3.85064 38.5874 -4.18754 108.793 87.0391 111.975
RightUpLeg  -18.842 -8.6341 -5.79455
RightLeg  1.20688 -6.57788 1.50922
RightFoot  -4.42716 -0.572902 8.92764
RightToes  5.82063e-011 0 -3.6325e-017
Spine  7.44981 -1.24123 -2.82852
Spine1  11.6282 -2.18561 2.37221
HEad  -16.346 -2.00475 -0.965232
LeftShoulder1  0.371967 2.34497 -25.8907
LeftArm  6.13449 -10.131 -55.15
LeftForeArm  46.8039 -77.4615 -57.1096
LeftHand  -0.0642286 4.27472 4.73595
RightShoulder  -0.331794 -4.55444 24.4982
RightArm  -15.6763 -3.40064 39.4776
RightForeArm  128.105 71.696 144.568
RightHand  -0.98533 6.24848 -10.1251
LeftUpLeg  8.55471 5.19179 -4.05021
LeftLeg  16.6025 1.5045 0.912718
LeftFoot  -19.4652 0.424661 4.3315
LeftToes  -1.20963e-009 8.6283e-011 2.04439e-011
1037
root  -2.77263 38.3086 -4.01056 113.846 86.3323 117.009
RightUpLeg  -19.5294 -10.0169 -5.73628
RightLeg  4.26153 -10.1488 1.57991
RightFoot  -3.66037 -0.554682 7.83924
RightToes  5.82063e-011 0 -3.6325e-017
Spine  6.81234 -1.29153 -2.79436
Spine1  12.1573 -2.20659 2.20011
HEad  -16.4461 -2.33802 -0.985016
LeftShoulder1  0.40127 2.25063 -25.8081
LeftArm  6.09664 -10.3227 -55.2686
LeftForeArm  46.6241 -77.4122 -56.6534
LeftHand  -0.0762129 3.88679 4.54787
RightShoulder  -0.362131 -4.63833 24.8983
RightArm  -15.6738 -3.10034 38.9638
RightForeArm  128.294 71.6795 144.628
RightHand  -1.0066 6.39469 -10.2158
LeftUpLeg  10.3565 5.22192 -3.96028
LeftLeg  16.767 0.81184 0.718543
LeftFoot  -21.2249 0.444272 3.66521
LeftToes  -1.20963e-009 8.6283e-011 2.04439e-011
1038
root  -1.66189 38.1207 -3.81585 124.167 86.077 127.348
RightUpLeg  -20.2807 -12.5673 -4.66473
RightLeg  8.23779 -10.0505 1.35247
RightFoot  -0.314706 -0.277462 3.28937
RightToes  5.82063e-011 0 -3.6325e-017
Spine  6.46669 -1.43979 -1.7947
Spine1  12.4726 -2.37706 2.3022
HEad  -16.7685 -2.28133 -1.08526
LeftShoulder1  0.38199 2.31358 -25.8961
LeftArm  6.46687 -10.6266 -55.2095
LeftForeArm  46.3911 -77.3724 -56.3447
LeftHand  -0.0735331 3.99183 4.63239
RightShoulder  -0.393312 -4.73406 25.0093
RightArm  -15.7433 -3.28089 38.8148
RightForeArm  129.058 71.4097 145.274
RightHand  -1.0307 6.59437 -10.2895
LeftUpLeg  12.3025 5.0332 -3.03635
LeftLeg  16.7065 -0.0257727 0.455748
LeftFoot  -22.3491 0.381041 2.55034
LeftToes  -1.20963e-009 8.6283e-011 2.04439e-011
1039
root  -0.501828 37.9827 -3.61917 137.912 86.3916 141.114
RightUpLeg  -21.8828 -15.2452 -2.51309
RightLeg  13.0062 -7.76854 0.35421
RightFoot  4.91017 0.323965 -2.21494
RightToes  5.82063e-011 0 -3.6325e-017
Spine  6.30282 -1.51413 0.0615638
Spine1  12.7828 -2.57058 2.84079
HEad  -17.7836 -2.24186 -1.52421
LeftShoulder1  0.326771 2.50445 -26.5104
LeftArm  7.03796 -10.9423 -54.8977
LeftForeArm  47.8805 -77.5933 -58.0352
LeftHand  -0.0649631 4.21198 4.56618
RightShoulder  -0.391166 -4.73428 24.8191
RightArm  -16.0144 -3.53336 38.5893
RightForeArm  129.558 71.1738 145.802
RightHand  -1.05302 6.31426 -10.7377
LeftUpLeg  14.0256 4.05527 -1.63369
LeftLeg  17.1313 -0.191696 0.371028
LeftFoot  -22.8757 0.207015 0.710165
LeftToes  -1.20963e-009 8.6283e-011 2.04439e-011
1040
root  0.705457 37.7586 -3.41566 144.021 87.5816 147.194
RightUpLeg  -24.2898 -17.168 0.598175
RightLeg  19.7459 -3.53708 -1.73132
RightFoot  4.35455 0.562968 -3.87309
RightToes  5.82063e-011 0 -3.6325e-017
Spine  6.434 -1.53063 2.62698
Spine1  12.348 -2.18157 2.05211
HEad  -19.2731 -1.89991 -1.98244
LeftShoulder1  0.311757 2.5606 -26.8794
LeftArm  6.94362 -10.5338 -54.8754
LeftForeArm  49.4372 -77.8167 -59.9455
LeftHand  -0.0499808 4.65336 4.60272
RightShoulder  -0.355995 -4.62456 24.7299
RightArm  -16.1105 -3.56601 38.5136
RightForeArm  129.714 71.4304 145.33
RightHand  -1.04991 6.45411 -10.5784
LeftUpLeg  14.7494 4.02795 0.241746
LeftLeg  19.9552 -0.81474 -0.014359
LeftFoot  -23.6318 -0.108422 -2.31514
LeftToes  -1.20963e-009 8.6283e-011 2.04439e-011
1041
root  1.92214 37.5651 -3.19738 149.772 89.2056 152.785
RightUpLeg  -25.2205 -13.7321 1.31611
RightLeg  24.9065 -4.71008 -2.6233
RightFoot  2.90932 0.724252 -5.63798
RightToes  5.82063e-011 0 -3.6325e-017
Spine  6.53004 -1.45405 5.15785
Spine1  11.7771 -1.54564 1.04717
HEad  -20.3762 -1.47495 -2.20128
LeftShoulder1  0.374455 2.36241 -26.6181
LeftArm  6.44954 -9.57412 -55.1104
LeftForeArm  49.5014 -77.816 -59.8926
LeftHand  -0.0647808 4.15024 4.29141
RightShoulder  -0.378015 -4.67924 25.1692
RightArm  -15.7454 -3.2728 38.3512
RightForeArm  128.405 72.0733 143.828
RightHand  -0.928428 5.75171 -9.96542
LeftUpLeg  14.5265 6.03956 2.89457
LeftLeg  24.6537 -3.93342 -1.66589
LeftFoot  -23.0864 -0.476729 -5.97886
LeftToes  -1.20963e-009 8.6283e-011 2.04439e-011
1042
root  3.09055 37.4553 -2.89985 -157.844 89.2275 -154.701
RightUpLeg  -24.8403 -12.578 2.11981
RightLeg  28.5148 -5.71539 -3.59123
RightFoot  -0.00604969 0.627324 -6.2799
RightToes  5.82063e-011 0 -3.6325e-017
Spine  6.75183 -1.92623 6.1134
Spine1  11.332 -2.06031 2.27294
HEad  -20.3895 -0.824521 -2.57623
LeftShoulder1  0.416552 2.23565 -26.668
LeftArm  6.36451 -9.23633 -55.0168
LeftForeArm  47.6271 -77.5841 -58.1012
LeftHand  -0.0596221 4.20421 3.94588
RightShoulder  -0.359221 -4.61777 25.2157
RightArm  -15.1058 -3.16445 38.3382
RightForeArm  125.992 72.7174 142.047
RightHand  -1.00613 6.326 -10.2676
LeftUpLeg  12.9299 6.69125 5.83049
LeftLeg  31.5866 -7.40445 -4.55909
LeftFoot  -19.864 -0.581381 -9.68176
LeftToes  -1.20963e-009 8.6283e-011 2.04439e-011
1043
root  4.20146 37.4197 -2.63093 -136.628 88.3011 -133.441
RightUpLeg  -23.8605 -12.3041 2.96474
RightLeg  30.7938 -6.33616 -4.30669
RightFoot  -3.01411 0.412777 -5.95111
RightToes  5.82063e-011 0 -3.6325e-017
Spine  6.85087 -2.59683 7.41295
Spine1  10.7016 -2.57366 2.85673
HEad  -20.3149 -0.0819994 -2.66626
LeftShoulder1  0.411878 2.24685 -26.5868
LeftArm  6.96021 -9.64287 -55.0751
LeftForeArm  44.7681 -77.1894 -55.3014
LeftHand  -0.0556531 4.38381 4.11052
RightShoulder  -0.356463 -4.60889 25.2179
RightArm  -14.9556 -3.8421 38.3578
RightForeArm  125.917 72.6552 142.172
RightHand  -1.00678 6.30323 -10.289
LeftUpLeg  9.51899 6.43995 8.33099
LeftLeg  40.064 -8.50549 -7.19793
LeftFoot  -13.0018 -0.138911 -13.4897
LeftToes  -1.20963e-009 8.6283e-011 2.04439e-011
1044
root  5.3133 37.4763 -2.41493 -124.263 87.7308 -121.087
RightUpLeg  -22.308 -12.5743 3.76617
RightLeg  31.7463 -6.21561 -4.38486
RightFoot  -5.37201 0.262652 -5.70434
RightToes  5.82063e-011 0 -3.6325e-017
Spine  6.60114 -3.06945 8.68053
Spine1  10.359 -2.93549 3.181
HEad  -20.6783 0.479434 -2.8348
LeftShoulder1  0.395724 2.30334 -26.7867
LeftArm  7.33719 -10.4903 -55.2471
LeftForeArm  44.2472 -77.1385 -55.081
LeftHand  -0.0528411 4.50803 4.19098
RightShoulder  -0.384066 -4.69716 25.1821
RightArm  -15.1069 -3.83169 37.8978
RightForeArm  127.075 72.4581 142.797
RightHand  -0.934761 6.106 -9.73884
LeftUpLeg  5.34459 6.0393 9.88249
LeftLeg  48.0716 -7.08428 -7.92071
LeftFoot  -3.04138 0.898792 -12.351
LeftToes  -1.20963e-009 8.6283e-011 2.04439e-011
